<?xml version="1.0" encoding="UTF-8"?>
<svg version="1.1" xmlns="http://www.w3.org/2000/svg" width="715" height="683">
<path d="M0 0 C0.76061737 -0.00067474 1.52123474 -0.00134949 2.30490112 -0.00204468 C34.89930344 0.04337567 66.54104403 5.29678582 97.5625 15.25 C98.99456787 15.70415283 98.99456787 15.70415283 100.45556641 16.16748047 C115.71298058 21.05990202 130.14638132 27.28349292 144.5625 34.25 C145.5539502 34.72453613 146.54540039 35.19907227 147.56689453 35.68798828 C162.03853912 42.63993736 175.91941229 50.36675029 189.71337891 58.57128906 C193.24778846 60.65377407 196.81515861 62.67354057 200.38891602 64.6875 C237.50046897 85.61985212 274.43871555 108.80501297 300.24023438 143.47460938 C301.56909409 145.2588538 302.9162441 147.02811816 304.265625 148.796875 C311.64279461 158.56097 318.22459851 168.78690298 324.5625 179.25 C324.98305664 179.9423877 325.40361328 180.63477539 325.83691406 181.34814453 C343.37290635 210.51544284 353.59831174 245.36142161 353.765625 279.4609375 C353.77263931 280.41836349 353.77965363 281.37578949 353.78688049 282.36222839 C353.804344 285.44986707 353.81073692 288.53731368 353.8125 291.625 C353.81351212 293.21016922 353.81351212 293.21016922 353.81454468 294.82736206 C353.79794757 311.19009432 353.1053531 327.06256927 350.5625 343.25 C350.39089355 344.42127441 350.21928711 345.59254883 350.04248047 346.79931641 C338.48189953 425.51251226 305.90131812 500.18937466 255.02441406 561.47949219 C253.66643243 563.12412859 252.32542929 564.78059597 250.9921875 566.4453125 C247.2704975 571.07534718 243.50366994 575.4594137 239.23046875 579.5859375 C237.47195051 581.34033743 235.86359065 583.17433565 234.25 585.0625 C227.61454933 592.73938911 220.29031652 599.69018387 212.5625 606.25 C211.65371094 607.04792969 210.74492188 607.84585938 209.80859375 608.66796875 C143.76827886 666.25978749 56.08755048 687.93299077 -29.956604 682.08613586 C-114.03875653 676.0955911 -211.58046539 638.55586532 -275.4375 582.25 C-276.26507813 581.52176025 -276.26507813 581.52176025 -277.109375 580.77880859 C-280.61675868 577.66913717 -284.044294 574.48445952 -287.4375 571.25 C-288.23671875 570.49203125 -289.0359375 569.7340625 -289.859375 568.953125 C-294.61046112 564.33310333 -298.87253913 559.4512128 -303.00073242 554.26904297 C-305.33867875 551.37243498 -307.74233293 548.54483786 -310.16015625 545.71484375 C-315.38866247 539.49774316 -319.97656619 532.91198696 -324.4375 526.125 C-324.82524597 525.53906067 -325.21299194 524.95312134 -325.61248779 524.34942627 C-332.06591404 514.58536223 -338.13921953 504.69355983 -343.4375 494.25 C-343.80020996 493.54230469 -344.16291992 492.83460938 -344.53662109 492.10546875 C-374.772595 432.51926185 -363.26759997 353.13645946 -343.31729126 291.83944702 C-333.05911252 260.86011506 -317.72476257 232.40786884 -301.4375 204.25 C-300.81858887 203.1770166 -300.19967773 202.1040332 -299.56201172 200.99853516 C-283.34857148 172.98089466 -265.83138998 145.62990089 -244.4375 121.25 C-243.82777344 120.54101562 -243.21804687 119.83203125 -242.58984375 119.1015625 C-232.24165277 107.11429635 -221.48392948 95.54939249 -209.4375 85.25 C-208.47714844 84.40050781 -207.51679688 83.55101563 -206.52734375 82.67578125 C-149.4998807 32.47959895 -76.52595629 0.06170858 0 0 Z " fill="#FFFFFF" transform="translate(361.4375,-0.25)"/>
<path d="M0 0 C0 0.33 0 0.66 0 1 C-1.41756592 1.02187378 -1.41756592 1.02187378 -2.86376953 1.04418945 C-50.96781779 1.84363142 -98.57154266 8.97106033 -134 45 C-137.16365687 48.549978 -140.11902236 52.21804246 -143 56 C-143.60585938 56.79019531 -144.21171875 57.58039063 -144.8359375 58.39453125 C-162.37341251 82.32009104 -169.38675483 110.69520054 -165.39453125 140.12109375 C-164.40925802 146.24804069 -163.07256782 152.14274311 -161 158 C-161.2165625 157.15695312 -161.2165625 157.15695312 -161.4375 156.296875 C-167.01629141 131.03734721 -161.0526125 102.96569769 -147.625 81.0625 C-146.44485392 79.35516848 -145.23473136 77.6682818 -144 76 C-142.85724609 74.41832031 -142.85724609 74.41832031 -141.69140625 72.8046875 C-123.08360865 47.51678999 -95.47383165 29.8733575 -64.31958008 24.82397461 C-21.191467 18.88292635 22.30553188 33.98290621 56.62890625 59.6953125 C76.27423466 74.69379091 76.27423466 74.69379091 81.12890625 82.36328125 C83.64330482 85.18504322 83.64330482 85.18504322 86.3293457 85.28735352 C89.37694374 85.1337725 92.35081672 84.78254933 95.375 84.375 C97.71902898 84.12935576 100.06416607 83.89411705 102.41015625 83.66796875 C103.64523926 83.54856934 104.88032227 83.42916992 106.15283203 83.30615234 C133.83782001 81.10301902 167.53145473 80.91298439 190.3125 99.25 C198.59617974 106.95535303 201.94444347 116.02948896 202.375 127.0625 C201.91850102 146.94303059 191.42555474 165.03144487 179 180 C178.5654248 180.52787109 178.13084961 181.05574219 177.68310547 181.59960938 C174.50896218 185.44691911 171.26968345 189.23378147 168 193 C167.30648437 193.80695313 166.61296875 194.61390625 165.8984375 195.4453125 C155.97463391 206.74848648 145.31719444 217.74932962 133.46484375 227.03515625 C130.91177557 229.07032787 128.52360773 231.22310534 126.125 233.4375 C114.90988334 243.61548205 102.30376563 252.2067696 90 261 C89.08476563 261.65871094 88.16953125 262.31742187 87.2265625 262.99609375 C66.40441856 277.81321665 44.23645737 290.55734155 21.70214844 302.55273438 C19.38682901 303.79281511 17.08491506 305.05252637 14.7890625 306.328125 C1.25674976 313.78540201 -12.93670885 319.91047514 -27.06134033 326.14331055 C-28.90144502 326.95644877 -30.73959822 327.77399893 -32.57763672 328.59179688 C-63.9565577 342.52204775 -96.22274196 353.84854656 -129 364 C-130.80863525 364.56195068 -130.80863525 364.56195068 -132.65380859 365.13525391 C-201.72029663 386.33979014 -306.78152823 415.8308957 -376 383 C-387.06183428 377.11573874 -394.36802037 369.73307237 -399 358 C-403.51400205 339.85773697 -395.53854199 323.01351721 -386.62988281 307.66650391 C-379.09829924 295.34476098 -369.941585 284.41812378 -360 274 C-358.90850795 272.73616711 -357.82439741 271.46589692 -356.75 270.1875 C-352.59683689 265.37910485 -348.01492352 260.98244522 -343.49609375 256.52197266 C-339.53237979 252.59301069 -335.76059972 248.60817868 -332.296875 244.22265625 C-331 243 -331 243 -328 243 C-328.34667725 243.44690186 -328.69335449 243.89380371 -329.05053711 244.35424805 C-355.4111145 276.60372847 -355.4111145 276.60372847 -364 316 C-362.69525695 324.07635945 -359.30792447 329.78699944 -353 335 C-310.72860836 362.17830263 -244.33926258 348.33117715 -198.16943359 338.38375854 C-151.73954758 328.20955649 -105.97269143 314.053803 -62 296 C-60.88898926 295.54705566 -59.77797852 295.09411133 -58.63330078 294.62744141 C-41.5114515 287.61789292 -24.69621689 279.96615253 -8 272 C-7.01515625 271.53094238 -6.0303125 271.06188477 -5.015625 270.57861328 C30.9962443 253.31256338 66.413483 231.78863198 97 206 C98.07535556 205.11177903 99.15088476 204.22376827 100.2265625 203.3359375 C113.79317562 192.03817671 126.33331419 179.80509678 136.83007812 165.57568359 C137.93174095 164.0919332 139.06645904 162.63289027 140.203125 161.17578125 C148.71924246 150.04307045 156.74927286 136.48132219 155 122 C152.89952836 114.17668647 148.62595739 109.89557107 141.921875 105.69921875 C118.86364893 93.03288028 89.78145122 92.80237903 64.1875 92.9375 C62.51237114 92.94252944 60.83724081 92.94708977 59.16210938 92.95117188 C55.10803561 92.96205292 51.05403469 92.97923629 47 93 C50.47065582 96.49432021 54.01666473 99.84134229 57.6875 103.125 C77.89032257 121.55728 92.79404837 144.83480849 103.3125 170 C103.89970825 171.38868286 103.89970825 171.38868286 104.4987793 172.80541992 C105.01952026 174.10829956 105.01952026 174.10829956 105.55078125 175.4375 C105.85669189 176.19933594 106.16260254 176.96117187 106.4777832 177.74609375 C107.13402952 180.57847616 106.96008639 182.2560993 106 185 C103.9375 186.8125 103.9375 186.8125 102 188 C101.71914551 187.31188232 101.43829102 186.62376465 101.14892578 185.91479492 C90.70011255 160.44130888 78.93325065 137.74145762 62 116 C61.25878906 115.0409375 60.51757812 114.081875 59.75390625 113.09375 C51.2283559 102.33707642 40.78433151 94.34520105 30 86 C32.47271766 88.48153306 34.95209991 90.95346631 37.46484375 93.39453125 C42.49196839 98.31047146 47.02152807 103.20377797 51 109 C51.48984375 109.68449219 51.9796875 110.36898437 52.484375 111.07421875 C67.5407638 132.6886738 74.9078458 160.66143264 71.49609375 186.87109375 C69.85783551 195.86747185 67.30670847 204.48595297 64 213 C63.67386719 213.90492188 63.34773438 214.80984375 63.01171875 215.7421875 C58.87803801 224.63457287 49.57186809 228.7580729 41.47216797 233.51513672 C38.50401655 235.29790355 35.63990805 237.2084163 32.77050781 239.14453125 C22.61362755 245.95833009 11.88744048 251.50440648 0.97668457 257.00091553 C-1.22429569 258.11336677 -3.42143702 259.23317781 -5.61816406 260.35400391 C-9.92885436 262.55295304 -14.24487299 264.74115066 -18.56417847 266.92312622 C-20.28036854 267.79117368 -21.99536607 268.66158393 -23.70901489 269.53463745 C-35.14893404 275.35460593 -46.6969814 280.500113 -58.67764282 285.10559082 C-60.84966573 285.94210178 -63.01601025 286.79147569 -65.18041992 287.64746094 C-106.1845036 303.84502956 -148.46038345 318.58594675 -191.9375 326.41992188 C-195.26435231 327.05007183 -198.56771907 327.75861057 -201.875 328.484375 C-226.39485417 333.85454964 -250.77673551 336.987931 -275.8125 338.3125 C-276.65028992 338.3580603 -277.48807983 338.40362061 -278.35125732 338.45056152 C-283.56813734 338.72524911 -288.77656614 338.90866548 -294 339 C-295.05719238 339.02545898 -296.11438477 339.05091797 -297.20361328 339.07714844 C-303.06052689 338.91633258 -303.06052689 338.91633258 -305.4074707 336.62719727 C-306.62491647 334.67644092 -307.44069253 332.77697351 -308.25 330.625 C-308.56880127 329.8633252 -308.88760254 329.10165039 -309.21606445 328.31689453 C-310.20196529 325.89594656 -311.11124938 323.45814222 -312 321 C-312.27827637 320.24267578 -312.55655273 319.48535156 -312.84326172 318.70507812 C-316.17909559 309.42030696 -318.60863037 299.93629239 -320.75 290.3125 C-321.04813599 288.97904541 -321.04813599 288.97904541 -321.35229492 287.61865234 C-324.32354648 273.57111495 -325.38398531 259.75061836 -325.3125 245.4375 C-325.30926727 244.26253967 -325.30926727 244.26253967 -325.30596924 243.06384277 C-325.10551715 197.41406695 -311.15649302 150.98620137 -282.29199219 115.0546875 C-276.46836783 107.76685866 -273.02540338 100.78899246 -269.92773438 91.99975586 C-263.05312744 72.57757964 -251.93869922 56.12078929 -237.94921875 41.1015625 C-236.20472294 39.22072333 -234.56532432 37.29381969 -232.9375 35.3125 C-229.65596263 31.45080132 -225.87063499 28.25400792 -222 25 C-220.6659073 23.85505088 -219.33252212 22.70927661 -218 21.5625 C-217.01 20.716875 -216.02 19.87125 -215 19 C-214.34 19.33 -213.68 19.66 -213 20 C-213.38929688 20.40347656 -213.77859375 20.80695313 -214.1796875 21.22265625 C-233.06668467 41.71983521 -244.11190622 68.8566619 -249 96 C-249.19207031 97.05316406 -249.38414062 98.10632813 -249.58203125 99.19140625 C-253.34735307 133.50158175 -245.32968872 167.11676495 -223.87182617 194.40625 C-208.94460534 212.72171757 -186.98697551 227.90117939 -162.8828125 230.5234375 C-159.58334842 230.76907165 -156.30756274 230.94315127 -153 231 C-154.01578125 230.76925781 -155.0315625 230.53851563 -156.078125 230.30078125 C-173.35699261 226.26307149 -189.7185711 219.39454934 -202 206 C-202 205.34 -202 204.68 -202 204 C-202.66 204 -203.32 204 -204 204 C-216.00766598 190.76478453 -223.3148798 175.10657839 -228 158 C-228.17934082 157.3493457 -228.35868164 156.69869141 -228.54345703 156.02832031 C-233.35732625 137.47078275 -233.5584739 114.35345157 -228 96 C-227.70198486 94.96673584 -227.70198486 94.96673584 -227.39794922 93.91259766 C-216.838797 57.67928208 -192.82221501 26.77994097 -160 8 C-140.56379459 -2.5684692 -119.12165292 -10.68564229 -97 -13 C-96.0925 -13.10957031 -95.185 -13.21914062 -94.25 -13.33203125 C-61.76564628 -16.7158181 -30.64551038 -10.43222554 0 0 Z " fill="#F2F2F2" transform="translate(461,101)"/>
<path d="M0 0 C1.73856166 51.98968032 -15.51024534 103.63738092 -50 143 C-50.69222656 143.80179688 -51.38445312 144.60359375 -52.09765625 145.4296875 C-70.88415248 166.77332931 -92.78029579 183.83729058 -118 197 C-118.69867188 197.36834961 -119.39734375 197.73669922 -120.1171875 198.11621094 C-170.53400095 224.3484248 -230.72234475 230.18554061 -284.93286133 213.35107422 C-320.38870081 201.83304007 -357.94121278 181.31969628 -384 154 C-384 153.34 -384 152.68 -384 152 C-383.41138184 151.94577881 -382.82276367 151.89155762 -382.21630859 151.83569336 C-300.87530831 144.04805433 -220.02292672 118.43686828 -108 68 C-106.10711983 67.07220431 -104.21391204 66.14507661 -102.3203125 65.21875 C-92.00938627 60.15058632 -81.93913467 54.76079083 -72 49 C-71.3080957 48.60312988 -70.61619141 48.20625977 -69.90332031 47.79736328 C-57.86784002 40.89216396 -46.36367537 33.3906535 -34.9453125 25.515625 C-34.08341309 24.92241455 -33.22151367 24.3292041 -32.33349609 23.71801758 C-30.63846156 22.5498181 -28.94598283 21.37789964 -27.25634766 20.2019043 C-26.48597168 19.66992432 -25.7155957 19.13794434 -24.921875 18.58984375 C-24.23706055 18.11409912 -23.55224609 17.63835449 -22.84667969 17.14819336 C-21 16 -21 16 -18 15 C-18.00523682 16.08531006 -18.01047363 17.17062012 -18.01586914 18.28881836 C-18.03391836 22.30117982 -18.04543171 26.31353767 -18.05493164 30.32592773 C-18.05997204 32.06519168 -18.0668043 33.80445136 -18.07543945 35.54370117 C-18.08751792 38.03825937 -18.09323108 40.53276173 -18.09765625 43.02734375 C-18.10281754 43.80963852 -18.10797882 44.59193329 -18.11329651 45.39793396 C-18.11349226 47.26567114 -18.06199694 49.13329204 -18 51 C-17.67 51.33 -17.34 51.66 -17 52 C-15.25089711 44.38557208 -13.95859132 37.06551352 -13.7421875 29.2421875 C-13.13715555 9.60480902 -13.13715555 9.60480902 -9.46484375 5.265625 C-2.96666003 0 -2.96666003 0 0 0 Z " fill="#F9F8F8" transform="translate(584,349)"/>
<path d="M0 0 C1.36089276 1.13783667 2.71565895 2.28306482 4.0625 3.4375 C4.65160156 3.88351563 5.24070312 4.32953125 5.84765625 4.7890625 C21.41383898 16.91579255 31.32450739 38.24953943 34.0625 57.4375 C35.1531039 72.05761773 34.77192044 86.48947163 30.0625 100.4375 C29.81580566 101.17403809 29.56911133 101.91057617 29.31494141 102.66943359 C19.90226649 130.01761675 19.90226649 130.01761675 13.0625 133.4375 C14.40667067 129.02093923 16.18386508 125.18175756 18.375 121.125 C30.21902819 98.19827912 32.4648848 70.82992473 24.80859375 46.2265625 C22.12357571 38.27199698 18.63573799 31.61006675 13.69921875 24.79296875 C12.0625 22.4375 12.0625 22.4375 11.0625 19.4375 C10.4025 19.4375 9.7425 19.4375 9.0625 19.4375 C7.91990685 18.29490685 6.78013192 17.14939623 5.65234375 15.9921875 C-6.43951413 4.16771714 -22.46592003 -1.79174362 -39.20703125 -2.61328125 C-56.54402293 -2.37728032 -72.23702833 4.28284694 -84.43359375 16.62890625 C-89.32397273 22.11437035 -93.53936035 27.87284658 -93.9375 35.4375 C-88.50166495 33.75051671 -83.38062098 31.77266179 -78.1875 29.4375 C-67.71812984 24.9232877 -57.32830924 21.78999484 -45.9375 24.4375 C-36.73030069 28.1949068 -31.92652854 35.74870616 -28.015625 44.49609375 C-21.23019632 63.00851331 -24.63514094 82.68256895 -32.625 100.1875 C-48.94980566 134.05908507 -83.43467503 157.32485813 -117.859375 169.71484375 C-149.46132432 180.66173054 -188.04096715 182.3953158 -218.9375 168.4375 C-219.60088379 168.14746094 -220.26426758 167.85742188 -220.94775391 167.55859375 C-240.35310943 158.977331 -256.40293313 144.67435527 -269 127.6875 C-269.64328247 126.8217334 -269.64328247 126.8217334 -270.29956055 125.93847656 C-276.60410124 117.08396653 -279.69854248 109.57204408 -279.8125 98.625 C-279.84601563 97.61501953 -279.87953125 96.60503906 -279.9140625 95.56445312 C-280.03465787 90.99690351 -279.95772261 86.91012784 -278.9375 82.4375 C-280.4225 82.9325 -280.4225 82.9325 -281.9375 83.4375 C-281.99808594 82.86902344 -282.05867187 82.30054688 -282.12109375 81.71484375 C-282.63926573 76.93968963 -283.22993859 72.1882695 -283.9375 67.4375 C-281.9375 68.4375 -281.9375 68.4375 -280.9296875 71.40234375 C-280.5540796 72.725655 -280.1819531 74.04995722 -279.8125 75.375 C-270.72744266 106.02053441 -253.40785984 130.81779533 -225.16845703 146.41455078 C-190.20025601 164.97168273 -149.28762784 165.24818627 -111.9375 154.4375 C-81.9592326 145.01315236 -52.88674171 124.45135679 -37.9375 96.4375 C-32.09697224 83.18065852 -28.75883679 68.33105711 -33.625 54.125 C-36.50823368 47.6352127 -40.09617321 43.08855409 -46.703125 40.1328125 C-53.39129246 38.05152962 -59.62566524 38.99366214 -65.79296875 42.13671875 C-73.01220537 46.51559998 -77.48316631 52.32635346 -82.21533203 59.15698242 C-92.79146086 74.40073122 -92.79146086 74.40073122 -100.953125 77.10546875 C-107.39157588 78.1827686 -113.36442608 78.14311957 -119.1171875 74.82421875 C-124.31412222 70.8651805 -127.73635729 65.56739969 -128.81640625 59.109375 C-129.7097251 39.39872673 -119.7077026 22.59892793 -106.9375 8.4375 C-79.2320879 -20.53364159 -31.86067698 -24.33876336 0 0 Z " fill="#FFFFFF" transform="translate(466.9375,200.5625)"/>
<path d="M0 0 C0.99 1.485 0.99 1.485 2 3 C1.41621582 3.08040527 0.83243164 3.16081055 0.23095703 3.24365234 C-2.47146759 3.61767005 -5.17322565 3.99631465 -7.875 4.375 C-8.7928125 4.50132812 -9.710625 4.62765625 -10.65625 4.7578125 C-15.24877563 5.4046471 -19.78306665 6.13695118 -24.3203125 7.1015625 C-33.81420902 8.97490254 -33.81420902 8.97490254 -38.92578125 5.69140625 C-40.39555934 4.65908809 -41.85742935 3.6154472 -43.3125 2.5625 C-69.21585149 -15.42290126 -96.5426204 -24.17707196 -128.1875 -18.75 C-133.78506184 -17.70590194 -138.97652255 -16.14369299 -144.1171875 -13.671875 C-146 -13 -146 -13 -149 -14 C-100.81056556 -36.19467666 -43.07036325 -33.29572001 0 0 Z " fill="#FFFFFF" transform="translate(539,185)"/>
<path d="M0 0 C0.66 0 1.32 0 2 0 C2.09920291 11.05561292 2.12520495 21.98906587 1 33 C0.67 33 0.34 33 0 33 C-2.03596288 12.10788863 -2.03596288 12.10788863 1 3 C0.45174561 3.38744385 -0.09650879 3.7748877 -0.66137695 4.17407227 C-19.28128487 17.31604274 -19.28128487 17.31604274 -27.62109375 22.484375 C-30.21017961 24.13390753 -32.69393899 25.89725107 -35.1875 27.6875 C-38.69732693 30.17709288 -42.17390094 32.20845548 -46.0625 34.03515625 C-48.82110319 35.40889615 -51.36905681 37.06773031 -53.9453125 38.75390625 C-56.55264345 40.33515829 -59.27271516 41.63635758 -62 43 C-63.60108305 43.91346426 -65.20174844 44.82773121 -66.7956543 45.75366211 C-75.25582991 50.65047001 -83.94567587 55.0716454 -92.6875 59.4375 C-93.3080426 59.74813385 -93.92858521 60.0587677 -94.56793213 60.3788147 C-105.6772042 65.93271636 -105.6772042 65.93271636 -111 68 C-113.33556463 68.99477753 -115.66875071 69.99515117 -118 71 C-120.33333333 72 -122.66666667 73 -125 74 C-126.175625 74.515625 -127.35125 75.03125 -128.5625 75.5625 C-132 77 -132 77 -134.8125 77.875 C-137.5496336 78.84104715 -139.88625354 79.93722449 -142.44921875 81.2734375 C-148.16265162 84.15319406 -154.02135462 86.48310457 -160 88.75 C-161.11342773 89.17611572 -162.22685547 89.60223145 -163.37402344 90.04125977 C-172.69602168 93.57716762 -182.09523212 96.87193365 -191.546875 100.04394531 C-196.57928019 101.74524139 -201.26916511 103.56202374 -206 106 C-208.34375 106.66015625 -208.34375 106.66015625 -210.5 107.0625 C-213.02724376 107.54322572 -215.35289734 108.11878248 -217.796875 108.94140625 C-221.40455251 110.13369967 -225.0555305 111.0063362 -228.75 111.875 C-233.28504057 112.9674345 -237.59592032 114.10646997 -241.875 116 C-246.17284722 117.85340182 -250.54409464 118.87639246 -255.10546875 119.83984375 C-256.72320916 120.19019517 -258.34071481 120.54163201 -259.95800781 120.89404297 C-260.7907019 121.07521667 -261.623396 121.25639038 -262.48132324 121.4430542 C-266.53739772 122.33995915 -270.57888898 123.29676306 -274.62109375 124.25390625 C-276.25320987 124.6375627 -277.88537162 125.02102514 -279.51757812 125.40429688 C-281.97682933 125.98218307 -284.43552979 126.56203002 -286.89282227 127.14819336 C-296.79659131 129.50707853 -306.66001474 131.56648073 -316.73973083 133.02748108 C-320.81410841 133.62103622 -324.72178042 134.35564353 -328.6875 135.5 C-338.52044623 138.17399545 -348.89826208 138.85675382 -359 140 C-358.195625 140.61617187 -357.39125 141.23234375 -356.5625 141.8671875 C-354 144 -354 144 -353 146.125 C-351.58322236 148.78145807 -349.78492312 149.12055059 -347 150 C-347 150.66 -347 151.32 -347 152 C-346.26910156 152.26554688 -345.53820312 152.53109375 -344.78515625 152.8046875 C-342.01225762 153.99473936 -339.87211868 155.35361924 -337.4375 157.125 C-333.56135428 159.89864918 -329.65198276 162.60375658 -325.6875 165.25 C-324.72199219 165.89453125 -323.75648438 166.5390625 -322.76171875 167.203125 C-317.45808297 170.65386398 -311.96251972 173.73474176 -306.4375 176.8125 C-305.33438477 177.4322168 -305.33438477 177.4322168 -304.20898438 178.06445312 C-301.81671382 179.3971429 -299.41232575 180.70396344 -297 182 C-296.09435303 182.48887695 -295.18870605 182.97775391 -294.25561523 183.48144531 C-287.08189824 187.22216771 -279.79444531 190.01662046 -272.10131836 192.50537109 C-270.19632667 193.12214223 -268.2963725 193.75440153 -266.39648438 194.38671875 C-253.21169805 198.7205125 -240.53415038 202.46897759 -226.625 203.25 C-225.45018066 203.32444336 -224.27536133 203.39888672 -223.06494141 203.47558594 C-190.90700299 205.39559492 -160.27422141 202.10346967 -129.82421875 191.60546875 C-128.13300282 191.0441444 -126.41034324 190.58009067 -124.6875 190.125 C-114.35069164 186.97139745 -105.2415099 182.08561192 -95.94262695 176.65844727 C-95.11722412 176.18721436 -94.29182129 175.71598145 -93.44140625 175.23046875 C-92.70607666 174.80145264 -91.97074707 174.37243652 -91.21313477 173.93041992 C-88.66025378 172.85716792 -86.74251368 172.82797151 -84 173 C-106.4661777 197.72183619 -160.16221977 205.88529061 -191.4375 207.75 C-255.90877713 210.75820381 -314.85328723 182.9648427 -362.3046875 140.77734375 C-364 139 -364 139 -364 137 C-363.41138184 136.94577881 -362.82276367 136.89155762 -362.21630859 136.83569336 C-280.87530831 129.04805433 -200.02292672 103.43686828 -88 53 C-86.10711983 52.07220431 -84.21391204 51.14507661 -82.3203125 50.21875 C-72.00938627 45.15058632 -61.93913467 39.76079083 -52 34 C-51.3080957 33.60312988 -50.61619141 33.20625977 -49.90332031 32.79736328 C-39.65497879 26.91751145 -29.751359 20.66767365 -20 14 C-18.29178851 12.83836247 -16.58344797 11.67691471 -14.875 10.515625 C-11.49010378 8.21007543 -8.10565078 5.90389892 -4.7265625 3.58984375 C-4.03127441 3.11409912 -3.33598633 2.63835449 -2.61962891 2.14819336 C-1.04168844 1.09765812 -1.04168844 1.09765812 0 0 Z " fill="#E7E6E6" transform="translate(564,364)"/>
<path d="M0 0 C0 0.66 0 1.32 0 2 C-8.31789133 0.71512248 -16.55271982 -0.87839375 -24.79199219 -2.59082031 C-34.40705309 -4.56244163 -34.40705309 -4.56244163 -44.1875 -5 C-48 -5 -48 -5 -50.234375 -5.4921875 C-53.84853111 -6.15580374 -57.40260127 -6.14512777 -61.0625 -6.125 C-61.76955078 -6.12886719 -62.47660156 -6.13273437 -63.20507812 -6.13671875 C-66.64058581 -6.13026709 -69.69821912 -5.93279012 -73 -5 C-76.8125 -5 -76.8125 -5 -78.70703125 -5.0625 C-84.88219165 -4.89418217 -90.92774666 -3.45373871 -96.9375 -2.125 C-97.69740234 -1.96386719 -98.45730469 -1.80273438 -99.24023438 -1.63671875 C-103.63099689 -0.66932615 -107.73148058 0.57109835 -111.91015625 2.22412109 C-114.21707368 3.08059114 -116.54246401 3.75240543 -118.91015625 4.421875 C-123.99204624 5.9174054 -128.67521879 7.94543211 -133.4375 10.25 C-134.2637085 10.64767578 -135.08991699 11.04535156 -135.94116211 11.45507812 C-151.62279913 19.12281863 -163.31954138 30.11014524 -175.58813477 42.29296875 C-176.7422414 43.43547386 -177.90082191 44.57347648 -179.0637207 45.70703125 C-185.52900917 52.01021205 -191.15103707 57.71106257 -195 66 C-196.18171426 67.98262663 -197.36848802 69.96225512 -198.5625 71.9375 C-201.60447804 77.14383552 -204.03336157 82.30416983 -206 88 C-206.25265625 88.72960937 -206.5053125 89.45921875 -206.765625 90.2109375 C-207.59276398 92.78914729 -208.29952163 95.38442065 -209 98 C-209.35449219 99.20398438 -209.70898438 100.40796875 -210.07421875 101.6484375 C-215.99064672 123.3024607 -214.60729673 147.59180292 -207.8046875 168.84375 C-206.99209137 172.03102024 -206.85209966 174.72647248 -207 178 C-209.80192559 175.19807441 -210.42611625 171.90053441 -211.5 168.1875 C-211.71269531 167.49462891 -211.92539063 166.80175781 -212.14453125 166.08789062 C-215.52262419 154.5754328 -216.36586722 143.07620801 -216.3125 131.125 C-216.31034485 130.46536255 -216.3081897 129.8057251 -216.30596924 129.12609863 C-216.25480939 119.35959501 -215.84444297 110.39202869 -213 101 C-212.80132324 100.31115723 -212.60264648 99.62231445 -212.39794922 98.91259766 C-201.838797 62.67928208 -177.82221501 31.77994097 -145 13 C-125.56379459 2.4315308 -104.12165292 -5.68564229 -82 -8 C-81.0925 -8.10957031 -80.185 -8.21914062 -79.25 -8.33203125 C-52.51009248 -11.11743828 -25.67723795 -7.65004607 0 0 Z " fill="#DBDCDD" transform="translate(446,96)"/>
<path d="M0 0 C1.70886979 1.08248691 3.41706871 2.16603294 5.125 3.25 C6.63513672 4.20519531 6.63513672 4.20519531 8.17578125 5.1796875 C10.27131431 6.53033536 12.29530488 7.91483195 14.3125 9.375 C17.26517068 11.16033576 19.58769754 11.67501881 23 12 C22.01 12.495 22.01 12.495 21 13 C24.45472695 16.51136182 28.01426879 19.83919905 31.6875 23.125 C51.89032257 41.55728 66.79404837 64.83480849 77.3125 90 C77.70397217 90.92578857 78.09544434 91.85157715 78.4987793 92.80541992 C78.84593994 93.67400635 79.19310059 94.54259277 79.55078125 95.4375 C79.85669189 96.19933594 80.16260254 96.96117187 80.4777832 97.74609375 C81.13402952 100.57847616 80.96008639 102.2560993 80 105 C77.9375 106.8125 77.9375 106.8125 76 108 C75.71914551 107.31188232 75.43829102 106.62376465 75.14892578 105.91479492 C64.70011255 80.44130888 52.93325065 57.74145762 36 36 C34.88818359 34.56140625 34.88818359 34.56140625 33.75390625 33.09375 C26.52933772 23.97852315 18.14930239 16.97274933 8.96020508 9.94335938 C5.3661667 7.17347381 2.1410113 4.2768069 -1 1 C-0.67 0.67 -0.34 0.34 0 0 Z " fill="#E0E1E1" transform="translate(487,181)"/>
<path d="M0 0 C1.73856166 51.98968032 -15.51024534 103.63738092 -50 143 C-50.69222656 143.80179688 -51.38445313 144.60359375 -52.09765625 145.4296875 C-66.96861995 162.32482956 -83.36576939 175.48844516 -102 188 C-102.66 187.67 -103.32 187.34 -104 187 C-100.44672313 183.24747396 -96.70544843 180.23283154 -92.4375 177.3125 C-85.63146181 172.55366775 -79.29151335 167.42023964 -73 162 C-71.89011719 161.05833984 -71.89011719 161.05833984 -70.7578125 160.09765625 C-64.02575592 154.32170887 -57.77863874 148.34508131 -52.56640625 141.14453125 C-48.75500525 135.92642864 -44.8485673 130.61845693 -40.125 126.1875 C-37.91090931 124.1883637 -37.91090931 124.1883637 -37.125 121.7890625 C-35.737309 118.34874523 -33.83010198 115.32326703 -31.875 112.1875 C-25.52849393 101.79033481 -19.77498089 91.07947884 -15.8671875 79.51171875 C-14.97655251 76.93208676 -13.94181257 74.44879237 -12.875 71.9375 C-11.24022439 67.89190743 -10.2569013 63.98801882 -9.49609375 59.69921875 C-8.92765644 56.6063827 -8.22122566 53.5607238 -7.5 50.5 C-6.9990715 48.33354781 -6.49902547 46.16689133 -6 44 C-5.68482422 42.64648438 -5.68482422 42.64648438 -5.36328125 41.265625 C-4.28804985 36.35463905 -3.8207596 31.84237493 -4.02734375 26.8125 C-4 25 -4 25 -3 23 C-2.91691362 21.62451844 -2.89263984 20.24514204 -2.90234375 18.8671875 C-2.90556641 18.06152344 -2.90878906 17.25585938 -2.91210938 16.42578125 C-2.92048828 15.58402344 -2.92886719 14.74226563 -2.9375 13.875 C-2.94201172 13.02550781 -2.94652344 12.17601562 -2.95117188 11.30078125 C-2.96297126 9.20049091 -2.98090694 7.1002367 -3 5 C-7.6298571 8.79554784 -7.6298571 8.79554784 -9.515625 14.18359375 C-9.42796875 15.25738281 -9.3403125 16.33117187 -9.25 17.4375 C-8.89260563 24.58538732 -8.89260563 24.58538732 -10 27.9375 C-11.15520089 30.93836423 -11.15520089 30.93836423 -11 34 C-11 37.59794895 -12.00754466 40.55948816 -13 44 C-12.67 44.66 -12.34 45.32 -12 46 C-13.32 47.32 -14.64 48.64 -16 50 C-15.91435791 49.32646484 -15.82871582 48.65292969 -15.74047852 47.95898438 C-15.48657169 45.94693141 -15.23543116 43.93452835 -14.98632812 41.921875 C-14.70240626 39.62956577 -14.41329294 37.33789391 -14.11914062 35.046875 C-13.49983176 30.04715773 -12.90373242 25.13704255 -12.96484375 20.09375 C-13.0809543 10.29988175 -13.0809543 10.29988175 -9.53125 6.03125 C-2.30864198 0 -2.30864198 0 0 0 Z " fill="#E4E3E3" transform="translate(584,349)"/>
<path d="M0 0 C0 3.60130164 -0.55878154 3.95407004 -2.9375 6.5 C-3.57945312 7.2115625 -4.22140625 7.923125 -4.8828125 8.65625 C-5.93082031 9.81640625 -5.93082031 9.81640625 -7 11 C-19.20464705 24.87096417 -29.60370498 41.13804657 -34.9453125 58.91796875 C-37.56259219 66.56624162 -40.86368257 72.52553171 -46 78.75 C-53.4976325 88.19505567 -59.33267418 98.38156069 -65 109 C-65.37946777 109.70914551 -65.75893555 110.41829102 -66.14990234 111.14892578 C-69.73886121 117.92101895 -72.78937741 124.65246304 -75 132 C-75.495 133.2065625 -75.495 133.2065625 -76 134.4375 C-77.2816701 137.72177962 -78.22306368 141.07821807 -79.2109375 144.4609375 C-79.89999007 146.67818587 -80.68731245 148.78931237 -81.5625 150.9375 C-83.14326439 155.00467504 -83.82447558 159.11650163 -84.53125 163.41015625 C-85 166 -85 166 -86.0625 169.5 C-87.08462614 173.31593758 -87.45907182 176.93416117 -87.75390625 180.86328125 C-87.95704626 183.45251024 -88.22160153 186.01983179 -88.50488281 188.60083008 C-89.00487522 193.58688196 -89.16106729 198.51509779 -89.16796875 203.5234375 C-89.17296135 204.82457993 -89.17296135 204.82457993 -89.17805481 206.15200806 C-89.18307704 207.97210161 -89.18546461 209.79220421 -89.18530273 211.61230469 C-89.18748925 214.36148571 -89.20569573 217.11026463 -89.22460938 219.859375 C-89.26652657 232.50041353 -88.10575584 244.02626896 -84.5 256.1875 C-83.1868375 260.68806603 -81.93478222 265.16474049 -80.94921875 269.75 C-80.11258847 273.63700283 -78.91373304 277.24815431 -77.48828125 280.95703125 C-76.92274165 283.32324894 -77.23584394 284.71778895 -78 287 C-98.89003187 234.49761902 -97.0908722 174.1806359 -74.90673828 122.45068359 C-68.09823394 106.93905935 -59.91958423 92.28427609 -49.29199219 79.0546875 C-43.46836783 71.76685866 -40.02540338 64.78899246 -36.92773438 55.99975586 C-29.28357285 34.4034299 -16.2345748 16.0322748 0 0 Z " fill="#DFDFE0" transform="translate(228,137)"/>
<path d="M0 0 C4.42019579 3.92493576 5.71385784 9.15201423 6.14501953 14.95019531 C6.92461424 35.92570578 -1.05007655 54.90769146 -13 72 C-14.33333333 73.33333333 -15.66666667 74.66666667 -17 76 C-17.40347656 76.72703125 -17.80695313 77.4540625 -18.22265625 78.203125 C-32.12754572 100.08422579 -61.87072303 117.257986 -86 125 C-86.8971875 125.31839844 -87.794375 125.63679688 -88.71875 125.96484375 C-95.34332666 128.28158474 -101.93496867 129.95617789 -108.8125 131.34375 C-111.32678321 131.86139654 -113.77670952 132.44683971 -116.25 133.125 C-124.61145413 135.07600596 -133.07363723 135.15884444 -141.625 135.125 C-143.10226562 135.13080078 -143.10226562 135.13080078 -144.609375 135.13671875 C-159.93053067 135.11629054 -173.54204298 130.58953968 -188 126 C-187.505 125.01 -187.505 125.01 -187 124 C-185.9584375 124.33773437 -184.916875 124.67546875 -183.84375 125.0234375 C-143.46864093 137.76020005 -101.26485534 130.99975637 -64.1171875 112.0625 C-35.68337405 96.51781839 -10.14484319 71.95523238 0.09765625 40.64453125 C3.35891748 27.70566691 3.44187812 12.90704295 0 0 Z " fill="#E2E2E2" transform="translate(439,246)"/>
<path d="M0 0 C0.66 0.33 1.32 0.66 2 1 C-0.9284489 3.37685457 -3.73040775 4.86989552 -7.2265625 6.26953125 C-8.24999756 6.68058105 -9.27343262 7.09163086 -10.32788086 7.51513672 C-11.41593018 7.9432666 -12.50397949 8.37139648 -13.625 8.8125 C-14.74205322 9.25609863 -15.85910645 9.69969727 -17.01000977 10.15673828 C-25.00993862 13.30077508 -33.06926006 16.13209334 -41.25 18.76171875 C-44.37889531 19.79490606 -47.39886779 20.91982063 -50.4375 22.1875 C-53.63440746 23.51728324 -56.77024281 24.51772822 -60.125 25.375 C-64.69140876 26.55651835 -69.04621688 28.1063154 -73.4375 29.8125 C-82.7913114 33.43017222 -92.36968341 36.22260802 -102 39 C-103.20785156 39.35707031 -104.41570312 39.71414063 -105.66015625 40.08203125 C-110.16684996 41.32071315 -114.72289388 42.20786609 -119.3046875 43.12109375 C-122.04275443 43.77232531 -124.53497357 44.49859296 -127.17578125 45.421875 C-132.79057269 47.34026207 -138.51351959 48.58288091 -144.3125 49.8125 C-145.5080249 50.06676758 -146.7035498 50.32103516 -147.93530273 50.58300781 C-170.00308946 55.16844887 -192.49794158 59.41341776 -215 61 C-215.76393066 61.05494629 -216.52786133 61.10989258 -217.31494141 61.16650391 C-222.5406831 61.52811371 -227.76584388 61.79715656 -233 62 C-233.98484375 62.04253906 -234.9696875 62.08507812 -235.984375 62.12890625 C-255.24879299 62.54648756 -276.79541967 60.60911831 -295 54 C-295 53.34 -295 52.68 -295 52 C-293.13214844 52.43119141 -293.13214844 52.43119141 -291.2265625 52.87109375 C-276.70320914 56.09188431 -261.88667714 58.60462636 -247 59 C-245.92492187 59.03996094 -244.84984375 59.07992187 -243.7421875 59.12109375 C-165.09015 60.64396919 -82.66925244 34.17674836 -10.89794922 4.29345703 C-10.21135727 4.01091568 -9.52476532 3.72837433 -8.81736755 3.43727112 C-7.48172115 2.88755764 -6.14863099 2.33158158 -4.8184967 1.7686615 C-3.23522423 1.12013254 -1.61925816 0.55257992 0 0 Z " fill="#E3E3E3" transform="translate(414,391)"/>
<path d="M0 0 C-3.49496879 2.32997919 -7.09167771 3.55495368 -11.03125 4.90625 C-11.84125458 5.18700378 -12.65125916 5.46775757 -13.48580933 5.75701904 C-16.15489783 6.67824108 -18.82687754 7.59055242 -21.5 8.5 C-22.42113586 8.8136853 -23.34227173 9.12737061 -24.2913208 9.45056152 C-101.41930251 35.6282402 -196.56786727 61.92651165 -278 44 C-278 43.67 -278 43.34 -278 43 C-272.54335953 42.91225503 -267.28518723 43.11449595 -261.86425781 43.7121582 C-221.15941026 48.08930297 -176.9536602 45.26411008 -137.07421875 35.88671875 C-133.00756476 34.93672171 -129.1099236 34.60053641 -124.9375 34.375 C-123.62652344 34.30023438 -122.31554687 34.22546875 -120.96484375 34.1484375 C-119.98644531 34.09945312 -119.00804687 34.05046875 -118 34 C-118 33.34 -118 32.68 -118 32 C-116.96931396 31.75878418 -115.93862793 31.51756836 -114.87670898 31.26904297 C-90.70515897 25.63426008 -90.70515897 25.63426008 -66.625 19.625 C-65.74384521 19.39925293 -64.86269043 19.17350586 -63.95483398 18.94091797 C-59.60187109 17.79596565 -55.43624961 16.45142871 -51.24365234 14.82080078 C-47.42015238 13.42204051 -43.51243711 12.2959538 -39.6171875 11.11523438 C-35.77051972 9.92924771 -31.94698266 8.68452321 -28.125 7.421875 C-26.77737962 6.97905748 -25.4297232 6.53634964 -24.08203125 6.09375 C-22.02268814 5.41703096 -19.9642074 4.73807192 -17.90771484 4.05273438 C-15.87814429 3.37732069 -13.84568577 2.71131356 -11.8125 2.046875 C-10.62269531 1.65338867 -9.43289063 1.25990234 -8.20703125 0.85449219 C-5.28588559 0.07617232 -2.99785271 -0.18489581 0 0 Z " fill="#E5E4E4" transform="translate(383,447)"/>
<path d="M0 0 C4.15095075 4.15095075 4.18180385 10.45981151 4.375 16.0625 C3.91850102 35.94303059 -6.57444526 54.03144487 -19 69 C-19.4345752 69.52787109 -19.86915039 70.05574219 -20.31689453 70.59960938 C-23.49103782 74.44691911 -26.73031655 78.23378147 -30 82 C-30.69351563 82.80695313 -31.38703125 83.61390625 -32.1015625 84.4453125 C-42.02536609 95.74848648 -52.68280556 106.74932962 -64.53515625 116.03515625 C-67.08822443 118.07032787 -69.47639227 120.22310534 -71.875 122.4375 C-83.09011666 132.61548205 -95.69623437 141.2067696 -108 150 C-108.91523437 150.65871094 -109.83046875 151.31742188 -110.7734375 151.99609375 C-117.93473725 157.09210398 -125.33897276 161.82337332 -132.74365234 166.55517578 C-134.26455083 167.52906425 -135.78306317 168.50668793 -137.29931641 169.48779297 C-139.50711973 170.91637159 -141.72137233 172.33437953 -143.9375 173.75 C-144.6176416 174.19255127 -145.2977832 174.63510254 -145.99853516 175.09106445 C-147.6278542 176.12302223 -149.3099679 177.07080202 -151 178 C-151.66 177.67 -152.32 177.34 -153 177 C-150.32605182 174.14900959 -147.77266324 172.10767776 -144.375 170.1875 C-140.89433026 168.16090917 -137.57896206 166.04327898 -134.3125 163.6875 C-130.22858093 160.76858605 -126.01909722 158.2110593 -121.6875 155.6875 C-115.36428815 151.98548283 -109.62286617 147.83371929 -103.90234375 143.26171875 C-101 141 -101 141 -98.109375 139.09375 C-94.32132356 136.54300179 -90.83584151 133.7128788 -87.3125 130.8125 C-86.60915527 130.23661133 -85.90581055 129.66072266 -85.18115234 129.06738281 C-83.77019974 127.91194183 -82.36002625 126.75554869 -80.95068359 125.59814453 C-79.26039393 124.213334 -77.56437738 122.83633505 -75.86328125 121.46484375 C-70.53844635 117.15788029 -65.3800581 112.7171925 -60.3203125 108.1015625 C-58.30602269 106.27717206 -56.25851386 104.50906198 -54.1875 102.75 C-50.39074772 99.44239986 -46.81727468 95.92589965 -43.25 92.375 C-42.69465576 91.82424805 -42.13931152 91.27349609 -41.56713867 90.70605469 C-39.11990586 88.24956748 -36.87503482 85.84013075 -34.734375 83.1015625 C-34.16203125 82.40804687 -33.5896875 81.71453125 -33 81 C-32.34 81 -31.68 81 -31 81 C-30.94457031 80.45988281 -30.88914062 79.91976562 -30.83203125 79.36328125 C-29.62321458 75.92978789 -27.18984217 73.73516272 -24.6875 71.1875 C-20.62809688 67.05282318 -17.74224198 63.11963632 -15 58 C-14.06687449 56.47647873 -13.12973943 54.95540156 -12.1875 53.4375 C-4.38401938 40.44124812 -4.38401938 40.44124812 -0.2890625 25.98828125 C0 24 0 24 1 21 C1.32861165 13.93484949 1.09565123 6.98477657 0 0 Z " fill="#E1E1E2" transform="translate(659,212)"/>
<path d="M0 0 C0.80566406 0.04833984 1.61132812 0.09667969 2.44140625 0.14648438 C3.28316406 0.20255859 4.12492188 0.25863281 4.9921875 0.31640625 C6.26642578 0.3947168 6.26642578 0.3947168 7.56640625 0.47460938 C9.66697874 0.60442003 11.76712941 0.74102365 13.8671875 0.87890625 C13.8671875 1.53890625 13.8671875 2.19890625 13.8671875 2.87890625 C13.12895752 2.91854492 12.39072754 2.95818359 11.63012695 2.99902344 C-26.8943418 5.16100432 -67.13411461 13.06310828 -96.01953125 40.87109375 C-98.1328125 42.87890625 -98.1328125 42.87890625 -100.62890625 44.81640625 C-114.62882515 56.34832073 -124.75197905 75.06389417 -130.5078125 92.06640625 C-130.74636963 92.76572266 -130.98492676 93.46503906 -131.23071289 94.18554688 C-134.82270521 105.41198329 -135.41099516 116.40454079 -135.2578125 128.12890625 C-135.24774825 129.47134738 -135.23862857 130.81379594 -135.23046875 132.15625 C-135.20715162 135.39733114 -135.17442802 138.63801727 -135.1328125 141.87890625 C-135.7928125 141.87890625 -136.4528125 141.87890625 -137.1328125 141.87890625 C-140.43785583 122.88162469 -139.0750908 102.52841358 -131.1328125 84.87890625 C-130.7203125 83.84765625 -130.3078125 82.81640625 -129.8828125 81.75390625 C-118.96148662 56.58982032 -100.15947233 37.23503368 -77.1328125 22.87890625 C-76.05257812 22.20472656 -74.97234375 21.53054687 -73.859375 20.8359375 C-63.19426612 14.40671377 -51.91187611 10.7267337 -40.1328125 6.87890625 C-38.55693359 6.34330078 -38.55693359 6.34330078 -36.94921875 5.796875 C-30.79746852 3.79179691 -24.61235273 2.69948452 -18.17578125 2.125 C-16.11223059 1.92120175 -16.11223059 1.92120175 -14.06640625 1.3515625 C-11.41795875 0.70416422 -8.85027671 0.87890625 -6.1328125 0.87890625 C-3.77622853 -0.29938574 -2.60708014 -0.16523747 0 0 Z " fill="#DCDDDE" transform="translate(430.1328125,99.12109375)"/>
<path d="M0 0 C2.41378574 1.71300924 3.77486092 3.24627351 4.62890625 6.10546875 C5.70636963 13.23941048 3.92689593 18.53606971 1 25 C0.56300781 25.99386719 0.12601563 26.98773438 -0.32421875 28.01171875 C-3.68336911 35.1993802 -7.87531583 40.98406641 -13 47 C-14.31790454 48.64150883 -15.63039567 50.28737823 -16.9375 51.9375 C-17.6078125 52.77023437 -18.278125 53.60296875 -18.96875 54.4609375 C-20.29654991 56.12068738 -21.60978595 57.79222191 -22.90625 59.4765625 C-33.06212696 72.4057751 -45.05825341 83.89751414 -58 94 C-59.29825468 95.11739096 -60.59068253 96.24161727 -61.875 97.375 C-64.43682869 99.58997777 -67.04249625 101.33166455 -70 103 C-73.45411452 105.17759394 -76.5454778 107.45189202 -79.5625 110.1875 C-82.28896807 112.59285072 -84.26197032 113.77345275 -88 114 C-88.495 115.485 -88.495 115.485 -89 117 C-90.96303418 118.07074592 -92.9697411 119.06295743 -95 120 C-95.9075 120.556875 -96.815 121.11375 -97.75 121.6875 C-100 123 -100 123 -102 123 C-102.495 124.485 -102.495 124.485 -103 126 C-104.9675293 127.43530273 -104.9675293 127.43530273 -107.57421875 128.93359375 C-109.02393066 129.77422363 -109.02393066 129.77422363 -110.50292969 130.63183594 C-111.55383789 131.22770508 -112.60474609 131.82357422 -113.6875 132.4375 C-114.76805664 133.05786133 -115.84861328 133.67822266 -116.96191406 134.31738281 C-157.96368254 157.75551075 -157.96368254 157.75551075 -174 164 C-175.03125 164.556875 -176.0625 165.11375 -177.125 165.6875 C-180 167 -180 167 -183 166 C-179.84425048 163.445074 -176.59973221 161.72883207 -172.93359375 159.99609375 C-171.72385974 159.42020216 -170.51414366 158.84427293 -169.30444336 158.26831055 C-168.67375946 157.97000336 -168.04307556 157.67169617 -167.39328003 157.36434937 C-164.07835865 155.79339929 -160.77359218 154.20139444 -157.46875 152.609375 C-156.48786659 152.13693611 -156.48786659 152.13693611 -155.48716736 151.654953 C-138.40205571 143.41309763 -122.24447777 133.88334534 -106.12060547 123.92382812 C-103.51553319 122.31782206 -100.90351066 120.72481983 -98.28515625 119.140625 C-84.38242797 110.67977382 -71.19345987 101.21455834 -58.921875 90.51953125 C-56.27543043 88.23750351 -53.56667723 86.08659284 -50.8125 83.9375 C-37.64997143 73.18392615 -26.04339614 60.67863211 -16 47 C-15.27554688 46.07058594 -14.55109375 45.14117187 -13.8046875 44.18359375 C-4.9455024 32.61275694 1.88044412 19.89208343 1 5 C0.58480886 2.06528987 0.58480886 2.06528987 0 0 Z " fill="#E1E1E1" transform="translate(615,218)"/>
<path d="M0 0 C10.41555422 10.41555422 12.20395533 35.4843376 12.375 49.6875 C12.24369337 62.98000576 8.78482363 75.68013154 4 88 C3.67386719 88.90492188 3.34773437 89.80984375 3.01171875 90.7421875 C-1.12196199 99.63457287 -10.42813191 103.7580729 -18.52783203 108.51513672 C-21.49598345 110.29790355 -24.36009195 112.2084163 -27.22949219 114.14453125 C-37.38637245 120.95833009 -48.11255952 126.50440648 -59.02331543 132.00091553 C-61.22429569 133.11336677 -63.42143702 134.23317781 -65.61816406 135.35400391 C-69.92885436 137.55295304 -74.24487299 139.74115066 -78.56417847 141.92312622 C-80.28036854 142.79117368 -81.99536607 143.66158393 -83.70901489 144.53463745 C-95.11768748 150.33870949 -106.63159119 155.47969504 -118.58059692 160.07000732 C-120.94538466 160.97900645 -123.30519804 161.89983734 -125.66381836 162.82470703 C-129.3394063 164.26389652 -133.02058672 165.68782783 -136.70556641 167.1027832 C-138.17789077 167.66927848 -139.6492153 168.23837788 -141.11962891 168.80981445 C-143.30422483 169.6586928 -145.49156784 170.50009689 -147.6796875 171.33984375 C-148.32968719 171.59394516 -148.97968689 171.84804657 -149.64938354 172.10984802 C-153.41546131 173.5434487 -157.00513398 174.4756115 -161 175 C-158.58433779 172.58433779 -156.57710213 171.94184943 -153.375 170.75 C-152.21484375 170.31429687 -151.0546875 169.87859375 -149.859375 169.4296875 C-148.57303776 168.95279825 -147.28657433 168.47624927 -146 168 C-143.90262536 167.21918929 -141.80579067 166.43696351 -139.70947266 165.65332031 C-138.3557973 165.14787208 -137.00134586 164.64449571 -135.64599609 164.14355469 C-132.55972952 162.99572418 -129.51774236 161.7927044 -126.4921875 160.4921875 C-123.50775638 159.21696078 -120.50837852 158.06168764 -117.45703125 156.95849609 C-107.02362781 153.18133332 -97.07030675 148.6018411 -87.1875 143.5625 C-84 142 -84 142 -82 142 C-82 141.34 -82 140.68 -82 140 C-80.86159668 139.44127197 -79.72319336 138.88254395 -78.55029297 138.30688477 C-74.25569093 136.19627213 -69.96671349 134.07443162 -65.67919922 131.94946289 C-63.83627247 131.0379474 -61.99190945 130.12932899 -60.14599609 129.22387695 C-48.95050306 123.72951087 -38.35587865 117.95079422 -28 111 C-26.00366867 109.73690094 -24.00254064 108.48134286 -21.99609375 107.234375 C-20.60874023 106.36425781 -20.60874023 106.36425781 -19.19335938 105.4765625 C-17.3238376 104.30529584 -15.45133343 103.13877867 -13.57617188 101.9765625 C-5.87166943 97.12658637 -0.90325417 93.2159891 2.125 84.375 C2.50229248 83.31756592 2.50229248 83.31756592 2.88720703 82.23876953 C6.97997833 70.89715686 6.97997833 70.89715686 8 59 C8.24363281 58.09894531 8.24363281 58.09894531 8.4921875 57.1796875 C9.29862793 53.71819705 9.0161828 50.28971445 8.9375 46.75390625 C8.99893447 44.04695011 9.38853767 41.63215425 10 39 C9.34 39 8.68 39 8 39 C7.99742187 38.20980469 7.99484375 37.41960937 7.9921875 36.60546875 C7.66756861 27.1374178 5.42667562 19.15898435 2.375 10.25 C1.22389428 6.85695015 0.45705842 3.56505567 0 0 Z " fill="#E1E1E1" transform="translate(521,226)"/>
<path d="M0 0 C-4.88788891 -0.29592647 -9.5075227 -0.66912347 -14.125 -2.375 C-18.4112334 -3.93153914 -22.71787483 -4.84277439 -27.1875 -5.6875 C-27.86506348 -5.81882324 -28.54262695 -5.95014648 -29.24072266 -6.08544922 C-33.22375125 -6.81363481 -36.96277985 -7.02791992 -41 -7 C-41.78205811 -7.16185791 -42.56411621 -7.32371582 -43.36987305 -7.49047852 C-45.95363193 -7.99101734 -48.2788188 -8.12920622 -50.90625 -8.1328125 C-51.81503906 -8.13410156 -52.72382813 -8.13539062 -53.66015625 -8.13671875 C-55.06587891 -8.13091797 -55.06587891 -8.13091797 -56.5 -8.125 C-57.43714844 -8.12886719 -58.37429688 -8.13273437 -59.33984375 -8.13671875 C-60.70302734 -8.13478516 -60.70302734 -8.13478516 -62.09375 -8.1328125 C-63.32641602 -8.13112061 -63.32641602 -8.13112061 -64.58398438 -8.12939453 C-67.1413857 -7.99242781 -69.49773011 -7.53326241 -72 -7 C-73.27875 -6.855625 -74.5575 -6.71125 -75.875 -6.5625 C-81.81391797 -5.8480437 -87.35708624 -3.91859068 -93 -2 C-93.64308105 -1.80647949 -94.28616211 -1.61295898 -94.94873047 -1.41357422 C-100.801135 0.39841773 -105.93834559 2.90805642 -111.25 5.9375 C-112.02601563 6.36740234 -112.80203125 6.79730469 -113.6015625 7.24023438 C-117.70198457 9.54584713 -121.42309847 11.91989035 -125 15 C-125.78298462 15.65355469 -125.78298462 15.65355469 -126.58178711 16.3203125 C-150.1351031 36.12133477 -166.87064594 60.05772334 -169.82421875 91.5625 C-169.96388231 93.49916806 -170.08814596 95.43694547 -170.20703125 97.375 C-170.32111328 99.1384375 -170.32111328 99.1384375 -170.4375 100.9375 C-170.49808594 102.03964844 -170.55867188 103.14179688 -170.62109375 104.27734375 C-171 107 -171 107 -173 109 C-174.11881414 85.0076523 -168.47950138 60.56367948 -154 41 C-153.23816406 39.94554687 -152.47632813 38.89109375 -151.69140625 37.8046875 C-133.08360865 12.51678999 -105.47383165 -5.1266425 -74.31958008 -10.17602539 C-52.14187797 -13.23108134 -19.4222849 -12.94818993 0 0 Z " fill="#DCDDDE" transform="translate(471,136)"/>
<path d="M0 0 C4.13723631 4.13723631 4.27382791 10.12854298 4.38037109 15.7109375 C4.331489 37.68121879 -5.49084903 54.65219111 -20.75 70.125 C-31.29130475 80.4885481 -42.91253121 88.20601176 -56 95 C-56.60537598 95.32097656 -57.21075195 95.64195312 -57.83447266 95.97265625 C-92.42579039 114.12763827 -133.83785758 115.1318027 -170.68041992 104.15771484 C-176.7339865 102.2660135 -176.7339865 102.2660135 -179 100 C-174.45110595 100.53060494 -170.27821762 101.42957952 -165.90161133 102.76489258 C-142.44691265 109.89001055 -115.8793879 110.39922568 -92 105 C-90.74340576 104.7215625 -90.74340576 104.7215625 -89.46142578 104.4375 C-75.42072048 101.20938549 -63.36129922 96.36533366 -51 89 C-50.35595215 88.62472168 -49.7119043 88.24944336 -49.04833984 87.86279297 C-28.38505047 75.73327296 -7.10816497 56.67891816 -0.39672852 32.85888672 C1.19708445 25.76675719 1.04512344 19.10112315 0.625 11.875 C0.56828125 10.72773438 0.5115625 9.58046875 0.453125 8.3984375 C0.31311278 5.59819302 0.16186516 2.7990517 0 0 Z " fill="#E1E1E1" transform="translate(432,252)"/>
<path d="M0 0 C-29.82094197 10.32536787 -59.8044149 19.71194997 -90.88916016 25.40380859 C-94.23488116 26.04501489 -97.55927923 26.7582511 -100.88671875 27.48828125 C-125.40343735 32.85376386 -149.78065182 35.9881382 -174.8125 37.3125 C-175.65028992 37.3580603 -176.48807983 37.40362061 -177.35125732 37.45056152 C-185.99021933 37.9054341 -194.39921529 38.20880594 -203 37 C-203.495 35.515 -203.495 35.515 -204 34 C-202.65421875 34.12024536 -202.65421875 34.12024536 -201.28125 34.24291992 C-191.7888737 34.99615665 -182.50214738 34.92993528 -173 34.3125 C-172.27743011 34.26843018 -171.55486023 34.22436035 -170.81039429 34.17895508 C-156.30379489 33.28381605 -141.95602455 31.56773398 -127.57275391 29.5 C-125.04451956 29.14617849 -122.51919809 28.81135822 -119.98583984 28.5 C-118.9822065 28.37431641 -118.9822065 28.37431641 -117.95829773 28.24609375 C-116.09404167 28.01413145 -114.22904767 27.78812215 -112.36401367 27.5625 C-109.06302616 27.01053866 -106.14796772 26.11804803 -103 25 C-99.7682921 24.11192558 -96.51004662 23.33955384 -93.25 22.5625 C-92.33275146 22.34295654 -91.41550293 22.12341309 -90.47045898 21.8972168 C-83.64118885 20.29977832 -76.80057434 19.01017251 -69.86230469 17.98852539 C-65.71419581 17.3639688 -61.95149027 16.39083832 -58 15 C-56.04625719 14.50244683 -54.0877477 14.02325112 -52.125 13.5625 C-48.70401317 12.72402284 -45.39951158 11.86101321 -42.125 10.5625 C-33.29035145 7.06163304 -23.91468272 4.9554101 -14.6953125 2.73046875 C-12.20224093 2.05481022 -9.8890694 1.22414084 -7.5 0.25 C-3.98503541 -1.0053445 -3.31187503 -1.07490681 0 0 Z " fill="#E4E3E3" transform="translate(360,402)"/>
<path d="M0 0 C0.88494141 -0.01224609 1.76988281 -0.02449219 2.68164062 -0.03710938 C7.2879229 -0.0474761 10.72506138 0.16324862 14.9375 2.1875 C17.22301301 2.85478335 19.51528911 3.4991734 21.8125 4.125 C26.72866981 5.50379973 31.3313861 6.99411243 35.9375 9.1875 C35.9375 9.8475 35.9375 10.5075 35.9375 11.1875 C36.80117188 11.42726562 37.66484375 11.66703125 38.5546875 11.9140625 C42.29580382 13.32238112 44.90050564 15.12833043 48.0625 17.5625 C49.07570313 18.33335937 50.08890625 19.10421875 51.1328125 19.8984375 C53.56470251 21.88323909 55.77272728 23.91914964 57.9375 26.1875 C57.6075 26.8475 57.2775 27.5075 56.9375 28.1875 C56.18726563 27.53523438 55.43703125 26.88296875 54.6640625 26.2109375 C39.14328881 12.87676392 21.19387619 3.74967262 0.375 3.875 C-0.59228027 3.87991455 -1.55956055 3.8848291 -2.55615234 3.88989258 C-24.11969659 4.23907802 -43.85264297 12.17075319 -59.3125 27.31640625 C-72.99100331 41.59723002 -80.79054135 59.14193987 -81.125 78.875 C-81.104375 79.638125 -81.08375 80.40125 -81.0625 81.1875 C-81.7225 81.1875 -82.3825 81.1875 -83.0625 81.1875 C-85.33155392 61.04964645 -78.74317995 46.67819347 -66.41113281 30.85400391 C-59.15926947 21.89288531 -51.03412859 15.75623288 -41.0625 10.1875 C-39.96550781 9.50945312 -38.86851562 8.83140625 -37.73828125 8.1328125 C-33.69590572 5.82503425 -29.48360037 4.6629689 -25 3.5 C-24.22333984 3.28794922 -23.44667969 3.07589844 -22.64648438 2.85742188 C-15.00609022 0.80661328 -7.90160443 0.00578025 0 0 Z " fill="#DDDEDF" transform="translate(420.0625,181.8125)"/>
<path d="M0 0 C-4.24773451 -0.4719705 -8.14668994 -1.2931441 -12.25 -2.5 C-26.94764083 -6.59047576 -40.15267685 -5.26506938 -54 1 C-54.62616211 1.26643311 -55.25232422 1.53286621 -55.89746094 1.80737305 C-61.49680159 4.34776423 -65.46418885 7.82719111 -69.75 12.1875 C-70.39582031 12.80947266 -71.04164063 13.43144531 -71.70703125 14.07226562 C-76.20240552 18.58148602 -78.81472973 23.03008251 -81 29 C-80.20980469 28.55269531 -79.41960937 28.10539062 -78.60546875 27.64453125 C-66.11583217 20.95008604 -51.33613052 14.74408303 -37 18 C-35.7625 18.20625 -34.525 18.4125 -33.25 18.625 C-28.8265983 20.49643918 -26.13677134 23.43418699 -23 27 C-23.495 27.99 -23.495 27.99 -24 29 C-24.45890625 28.59007812 -24.9178125 28.18015625 -25.390625 27.7578125 C-26.00421875 27.21898437 -26.6178125 26.68015625 -27.25 26.125 C-27.85328125 25.59132812 -28.4565625 25.05765625 -29.078125 24.5078125 C-34.52428221 20.23501437 -40.22137137 19.8421827 -47 20 C-57.04937003 21.49153808 -66.03790192 25.02855429 -75.14892578 29.44506836 C-80.70284802 32.09905066 -80.70284802 32.09905066 -84 31 C-83.51180076 21.72421438 -76.92960128 14.21617295 -70.4765625 8.09765625 C-53.04072124 -6.6705563 -19.70398621 -16.82047604 0 0 Z " fill="#DDDEDF" transform="translate(456,205)"/>
<path d="M0 0 C-10.67206056 5.75880191 -10.67206056 5.75880191 -15.57348633 8.390625 C-16.78337254 9.0403522 -17.99325212 9.69009173 -19.203125 10.33984375 C-19.80162766 10.66121307 -20.40013031 10.9825824 -21.01676941 11.31369019 C-24.16216643 13.00466547 -27.29856469 14.71000597 -30.421875 16.44140625 C-56.55108834 30.81213954 -84.91316353 42.26586531 -112.5625 53.3125 C-113.28864502 53.60890381 -114.01479004 53.90530762 -114.76293945 54.21069336 C-119.6462605 56.11791317 -119.6462605 56.11791317 -123 55 C-119.19964985 52.53084595 -115.47682398 51.00488568 -111.1875 49.5625 C-106.57207145 47.95838643 -102.24382226 46.25398128 -97.9296875 43.9765625 C-92.23133004 41.09277836 -86.3885154 38.6724753 -80 38 C-80 37.34 -80 36.68 -80 36 C-76.4026162 34.44222522 -72.80159478 32.90899141 -69.16015625 31.45703125 C-56.50628244 26.39578949 -44.29036754 20.76317715 -32.6953125 13.5703125 C-27.28200645 10.41647332 -21.61274499 7.73140441 -15.98730469 4.97949219 C-13.23460774 3.62275753 -10.49997099 2.23068629 -7.76611328 0.83642578 C-4.58409754 -0.67056702 -3.43430978 -1.14476993 0 0 Z " fill="#E4E3E4" transform="translate(506,391)"/>
<path d="M0 0 C0.71671875 0.29390625 1.4334375 0.5878125 2.171875 0.890625 C7.48512244 3.08783259 12.48028157 5.83577678 17.5 8.625 C18.57942871 9.22006348 18.57942871 9.22006348 19.68066406 9.82714844 C24.87958531 12.75917063 24.87958531 12.75917063 26 15 C21.59799643 14.42441574 18.68674466 12.76540282 14.9375 10.4375 C-20.05675327 -10.29407257 -58.31143692 -12.29113564 -96.89257812 -2.51904297 C-99.248954 -1.93868441 -101.61323667 -1.4388883 -104 -1 C-101.47918645 -4.78122033 -98.90326296 -5.3298251 -94.75 -6.5625 C-94.03706787 -6.77938477 -93.32413574 -6.99626953 -92.58959961 -7.21972656 C-85.81028885 -9.20025002 -79.01699591 -10.24092874 -72 -11 C-70.78763672 -11.16628906 -70.78763672 -11.16628906 -69.55078125 -11.3359375 C-46.78693183 -14.36021911 -20.75941283 -9.57170532 0 0 Z " fill="#DBDDDE" transform="translate(508,166)"/>
<path d="M0 0 C0.33 0.66 0.66 1.32 1 2 C-0.07594559 3.97716498 -1.24103711 5.90584931 -2.4375 7.8125 C-20.04363183 37.35909559 -26.10085073 75.47561272 -18.08984375 108.8671875 C-16.859842 113.62492516 -15.5543911 118.33682671 -14 123 C-14.66 123 -15.32 123 -16 123 C-27.63520543 88.4163064 -27.23443783 53.5385012 -12 20 C-11.69771484 19.33194336 -11.39542969 18.66388672 -11.08398438 17.97558594 C-8.03032436 11.33534666 -4.83459398 5.51110713 0 0 Z " fill="#DCDDDE" transform="translate(232,139)"/>
<path d="M0 0 C0 3 0 3 -2.3125 5.375 C-3.199375 6.24125 -4.08625 7.1075 -5 8 C-5.6496875 9.1446875 -5.6496875 9.1446875 -6.3125 10.3125 C-8.91409868 14.45578678 -12.4799039 17.63040682 -16 21 C-16.66 20.67 -17.32 20.34 -18 20 C-17.35933594 19.29875 -16.71867187 18.5975 -16.05859375 17.875 C-11.41351272 12.77994838 -6.79521326 7.66977529 -2.27734375 2.4609375 C-1.54167701 1.61953273 -0.79030613 0.79030613 0 0 Z M-19 21 C-18.67 21.66 -18.34 22.32 -18 23 C-18.70125 24.00417969 -19.4025 25.00835937 -20.125 26.04296875 C-40.48300818 54.19283282 -40.48300818 54.19283282 -44.546875 87.61328125 C-44.19836101 89.29361654 -43.8305537 90.97014679 -43.4375 92.640625 C-42.97353352 95.14272996 -42.9279718 97.46100595 -43 100 C-48.18843429 94.33988987 -48.48461084 86.62359011 -48.29296875 79.3046875 C-46.32019362 57.05178401 -32.39785542 38.02048945 -19 21 Z " fill="#E2E2E2" transform="translate(109,366)"/>
<path d="M0 0 C0.99 0.99 0.99 0.99 2 2 C-3.14565672 1.68250203 -7.91055635 1.15007955 -12.8125 -0.5 C-17.85858469 -2.14476811 -22.73762593 -2.51885541 -28.01953125 -2.7890625 C-31 -3 -31 -3 -33.26586914 -3.50488281 C-36.46474257 -4.08415912 -39.47551289 -4.12967745 -42.7265625 -4.1328125 C-44.0053125 -4.13410156 -45.2840625 -4.13539063 -46.6015625 -4.13671875 C-47.26188477 -4.13462402 -47.92220703 -4.1325293 -48.60253906 -4.13037109 C-50.62572665 -4.12499807 -52.64869408 -4.13034112 -54.671875 -4.13671875 C-55.94804688 -4.13542969 -57.22421875 -4.13414062 -58.5390625 -4.1328125 C-59.70646973 -4.13168457 -60.87387695 -4.13055664 -62.07666016 -4.12939453 C-65.06385757 -4.13091879 -65.06385757 -4.13091879 -68 -3 C-70.807347 -2.93235308 -73.59897771 -3.00212855 -76.40625 -3.0625 C-79.1166664 -3.12404608 -79.1166664 -3.12404608 -82 -2 C-84.04296875 -2.12109375 -84.04296875 -2.12109375 -86.1875 -2.4375 C-87.445625 -2.623125 -88.70375 -2.80875 -90 -3 C-86.77029412 -6.22970588 -82.73088411 -5.76501922 -78.3125 -6.125 C-77.30590332 -6.2077417 -76.29930664 -6.2904834 -75.26220703 -6.37573242 C-50.86574445 -8.16726133 -23.09913512 -9.68673408 0 0 Z " fill="#DCDEDE" transform="translate(636,191)"/>
<path d="M0 0 C0 3.86059293 -1.15960181 4.71638415 -3.625 7.625 C-6.19545685 10.72113087 -8.50952333 13.73089072 -10.5625 17.1875 C-22.15579911 34.93875744 -41.7308114 47.40497337 -59 59 C-59.66 58.67 -60.32 58.34 -61 58 C-57.44672313 54.24747396 -53.70544843 51.23283154 -49.4375 48.3125 C-42.63146181 43.55366775 -36.29151335 38.42023964 -30 33 C-29.26007813 32.37222656 -28.52015625 31.74445313 -27.7578125 31.09765625 C-21.03557715 25.33013526 -14.77845359 19.36473398 -9.5859375 12.1640625 C-6.53377122 7.99928388 -3.24305175 4.01677475 0 0 Z " fill="#EAE8E8" transform="translate(541,478)"/>
<path d="M0 0 C0.99 0.33 1.98 0.66 3 1 C4.0066124 3.53594638 4.81965052 5.94963826 5.5625 8.5625 C5.77068359 9.25408203 5.97886719 9.94566406 6.19335938 10.65820312 C6.81996313 12.76587029 7.41008222 14.88181571 8 17 C8.37511719 18.25425781 8.75023437 19.50851563 9.13671875 20.80078125 C10.41521509 26.02714074 10.29126868 31.27382828 10.25 36.625 C10.25773437 37.635625 10.26546875 38.64625 10.2734375 39.6875 C10.25978342 44.88970421 9.97578982 49.11413214 8 54 C7.87625 55.0725 7.7525 56.145 7.625 57.25 C6.80597395 62.16415629 4.97018055 66.44567567 3 71 C2.34 71 1.68 71 1 71 C1.27714844 69.83082031 1.55429687 68.66164063 1.83984375 67.45703125 C2.20577401 65.90886477 2.57165693 64.36068709 2.9375 62.8125 C3.11990234 62.04357422 3.30230469 61.27464844 3.49023438 60.48242188 C3.66748047 59.73154297 3.84472656 58.98066406 4.02734375 58.20703125 C4.18968506 57.5210083 4.35202637 56.83498535 4.51928711 56.12817383 C4.67792236 55.42587646 4.83655762 54.7235791 5 54 C5.27021973 52.80600586 5.27021973 52.80600586 5.54589844 51.58789062 C8.1243809 36.89331316 6.61017784 21.08291551 2 7 C1.31713845 4.67101605 0.65892463 2.33591749 0 0 Z " fill="#E1E1E2" transform="translate(494,235)"/>
<path d="M0 0 C0 0.33 0 0.66 0 1 C-1.28583984 0.96519531 -1.28583984 0.96519531 -2.59765625 0.9296875 C-12.2419652 0.77746616 -18.68176905 1.14698071 -25.90234375 7.89453125 C-31.66531388 13.67896496 -36.81162655 19.66780758 -41.5625 26.3125 C-45.23315719 31.33380393 -48.47670487 34.18814066 -54 37 C-54 36.01 -54 35.02 -54 34 C-53.195625 33.505 -52.39125 33.01 -51.5625 32.5 C-44.43515311 28.08943004 -39.66617012 19.98533563 -34.9375 13.25 C-26.95504614 2.18521248 -14.0102846 -7.47215179 0 0 Z " fill="#DEDFE0" transform="translate(423,241)"/>
<path d="M0 0 C0.33 0.66 0.66 1.32 1 2 C2.26457031 1.96519531 3.52914062 1.93039063 4.83203125 1.89453125 C22.29473554 1.91159467 44.2090434 6.5070851 57 19 C57.79296875 21.24609375 57.79296875 21.24609375 58 23 C57.30777344 22.43732422 57.30777344 22.43732422 56.6015625 21.86328125 C38.20984584 7.4334166 13.95095917 4.27100212 -8.796875 3.30859375 C-9.52390625 3.20675781 -10.2509375 3.10492188 -11 3 C-11.33 2.34 -11.66 1.68 -12 1 C-6.06 0.505 -6.06 0.505 0 0 Z " fill="#DCDDDE" transform="translate(555,191)"/>
<path d="M0 0 C8.16363466 8.16363466 9.03952718 27.47331685 9.3125 38.1875 C9.19301589 47.73627194 8.02704073 57.91887781 5 67 C4.34 66.67 3.68 66.34 3 66 C3.13277344 65.01 3.26554687 64.02 3.40234375 63 C3.76702825 60.27899862 4.12843146 57.55758213 4.48828125 54.8359375 C4.76844576 52.73577297 5.05256788 50.63606853 5.35546875 48.5390625 C5.94721463 44.33680915 6.02728266 40.28367218 5.96875 36.0546875 C6.00585866 33.61479325 6.39088193 31.36033253 7 29 C6.34 29 5.68 29 5 29 C4.96132813 27.81857422 4.96132813 27.81857422 4.921875 26.61328125 C4.5346139 19.17610779 3.25935715 12.7229685 0.83984375 5.6796875 C0 3 0 3 0 0 Z " fill="#E0E0E1" transform="translate(488,237)"/>
<path d="M0 0 C0.90000732 0.00088623 1.80001465 0.00177246 2.72729492 0.00268555 C15.30495613 0.21842775 27.51456122 2.72978263 39.1875 7.375 C35.45461103 8.45957573 33.3214327 8.08106508 29.5625 7 C24.82627674 5.72775444 20.32797601 4.93320642 15.44140625 4.5859375 C13.1875 4.375 13.1875 4.375 10.96875 3.859375 C7.01516798 3.17082982 3.12990797 3.23060577 -0.875 3.25 C-2.07866211 3.24419922 -2.07866211 3.24419922 -3.30664062 3.23828125 C-4.47163086 3.24021484 -4.47163086 3.24021484 -5.66015625 3.2421875 C-6.7121521 3.24387939 -6.7121521 3.24387939 -7.78540039 3.24560547 C-9.90774579 3.38107976 -11.76566452 3.8110946 -13.8125 4.375 C-15.47769519 4.71560811 -17.14407466 5.05058396 -18.8125 5.375 C-18.8125 4.385 -18.8125 3.395 -18.8125 2.375 C-12.48895807 0.72256941 -6.53110043 -0.01179235 0 0 Z " fill="#DCDDDE" transform="translate(429.8125,163.625)"/>
<path d="M0 0 C0 3.92903537 -1.41425489 5.47260139 -3.5625 8.75 C-13.43253592 24.32287065 -20.117249 40.29650599 -17 59 C-17.66 59 -18.32 59 -19 59 C-22.54843938 45.3131624 -20.77865919 34.05328928 -13.60546875 21.796875 C-11.90998602 18.84318733 -10.45812831 15.82699517 -9 12.75 C-6.55154713 7.7753656 -3.82080437 4.00274744 0 0 Z " fill="#E1E0E1" transform="translate(115,365)"/>
<path d="M0 0 C2.13238973 3.19858459 2.28634694 4.35027808 2.5 8.0625 C2.8983752 13.49488915 3.81346271 18.68938163 5 24 C4.34 24 3.68 24 3 24 C3 24.99 3 25.98 3 27 C2.34 27 1.68 27 1 27 C-0.85776765 23.86501708 -1.20140476 21.62528568 -1 18 C-1.99 18 -2.98 18 -4 18 C-3.67174768 12.70268677 -3.44565935 9.19471573 0 5 C0.25124826 2.33238236 0.25124826 2.33238236 0 0 Z " fill="#F8F8F8" transform="translate(181,258)"/>
<path d="M0 0 C5.75 1.625 5.75 1.625 8 5 C8.99 5.33 9.98 5.66 11 6 C11 6.66 11 7.32 11 8 C12.65 8.33 14.3 8.66 16 9 C16 9.66 16 10.32 16 11 C16.72703125 11.11472656 17.4540625 11.22945313 18.203125 11.34765625 C21.08077291 12.01883949 23.18602416 12.98773514 25.75 14.4375 C26.52859375 14.86933594 27.3071875 15.30117188 28.109375 15.74609375 C30 17 30 17 31 19 C26.47229305 18.38768154 22.78627448 16.58048898 18.8125 14.4375 C18.15556152 14.0854248 17.49862305 13.73334961 16.82177734 13.37060547 C2.82875638 5.65751276 2.82875638 5.65751276 0 0 Z " fill="#E1E1E2" transform="translate(222,333)"/>
<path d="M0 0 C0.66 0.33 1.32 0.66 2 1 C-6.58 9.58 -15.16 18.16 -24 27 C-24 22.81753658 -21.67883644 21.11483207 -18.9375 18.25 C-18.43452393 17.71431396 -17.93154785 17.17862793 -17.41333008 16.62670898 C-15.95102465 15.07577898 -14.47805789 13.53590854 -13 12 C-12.31421875 11.28457031 -11.6284375 10.56914062 -10.921875 9.83203125 C-7.4638073 6.30386758 -3.84817938 3.09731511 0 0 Z " fill="#E4E5E6" transform="translate(284,122)"/>
<path d="M0 0 C0.66 0.33 1.32 0.66 2 1 C2 8.26 2 15.52 2 23 C-1.37683638 18.4975515 -1.37683638 18.4975515 -1.328125 14.9609375 C-1.32296875 14.21585937 -1.3178125 13.47078125 -1.3125 12.703125 C-1.291875 11.93484375 -1.27125 11.1665625 -1.25 10.375 C-1.24484375 9.59898437 -1.2396875 8.82296875 -1.234375 8.0234375 C-1.15502232 2.31004464 -1.15502232 2.31004464 0 0 Z " fill="#E3E3E4" transform="translate(186,288)"/>
<path d="M0 0 C3.79147211 1.46902056 7.4516353 3.13308505 11.125 4.875 C16.97840646 7.5981355 22.89149481 9.91894613 29 12 C24.82342833 13.81450029 21.28197104 11.9883052 17.3125 10.4375 C16.24708984 10.03011597 16.24708984 10.03011597 15.16015625 9.61450195 C9.66468238 7.4352407 4.53042923 4.86344937 0 1 C0 0.67 0 0.34 0 0 Z " fill="#E4E3E3" transform="translate(76,477)"/>
<path d="M0 0 C-9.07449185 1.91281635 -17.66824711 3.5338079 -27 3 C-27.33 3.99 -27.66 4.98 -28 6 C-28.66 4.68 -29.32 3.36 -30 2 C-25.75139233 1.4673614 -21.50096775 0.9509344 -17.25 0.4375 C-16.0434375 0.28603516 -14.836875 0.13457031 -13.59375 -0.02148438 C-11.85351562 -0.2293457 -11.85351562 -0.2293457 -10.078125 -0.44140625 C-8.47565918 -0.63778687 -8.47565918 -0.63778687 -6.84082031 -0.83813477 C-4.24416081 -0.98608812 -2.44766463 -0.80814243 0 0 Z " fill="#E0DFDF" transform="translate(230,499)"/>
<path d="M0 0 C0.33 0 0.66 0 1 0 C1 8.25 1 16.5 1 25 C0.67 25 0.34 25 0 25 C-0.33 18.07 -0.66 11.14 -1 4 C-2.65 4.66 -4.3 5.32 -6 6 C-4 4 -2 2 0 0 Z " fill="#DCDCDC" transform="translate(583,349)"/>
<path d="M0 0 C0.99 0.33 1.98 0.66 3 1 C2.34257813 1.52980469 1.68515625 2.05960937 1.0078125 2.60546875 C-1.60755725 5.72457703 -1.36032231 7.30731433 -1.125 11.3125 C-0.95272537 16.41182905 -1.22712411 20.23539605 -3 25 C-3.33 25 -3.66 25 -4 25 C-3.91899023 21.58237216 -3.80615997 18.16651152 -3.6875 14.75 C-3.66494141 13.78191406 -3.64238281 12.81382812 -3.61914062 11.81640625 C-3.58369141 10.88183594 -3.54824219 9.94726562 -3.51171875 8.984375 C-3.48553467 8.12553711 -3.45935059 7.26669922 -3.43237305 6.38183594 C-2.92183096 3.56938615 -1.85629865 2.1350676 0 0 Z " fill="#E7E6E7" transform="translate(576,355)"/>
<path d="M0 0 C5.61 0 11.22 0 17 0 C15.68085371 2.63829259 14.76142665 2.98263229 12 4 C5.86296656 4.66949456 5.17064849 4.13651879 0 0 Z " fill="#E1E1E2" transform="translate(351,277)"/>
<path d="M0 0 C4.91935902 4.11619836 9.52647956 8.40410362 14 13 C13.01 13.495 13.01 13.495 12 14 C3.07288247 6.48128693 3.07288247 6.48128693 0 2 C0 1.34 0 0.68 0 0 Z " fill="#E0E0E1" transform="translate(238,298)"/>
<path d="M0 0 C3.95969176 1.67229701 7.0161201 4.36304994 10.25 7.125 C10.80429687 7.59292969 11.35859375 8.06085938 11.9296875 8.54296875 C13.28947326 9.69175328 14.64515165 10.84539653 16 12 C15.01 12.495 15.01 12.495 14 13 C12.66102417 12.04956626 11.32894573 11.08940853 10 10.125 C9.2575 9.59132812 8.515 9.05765625 7.75 8.5078125 C7.1725 8.01023438 6.595 7.51265625 6 7 C6 6.34 6 5.68 6 5 C5.195625 4.731875 4.39125 4.46375 3.5625 4.1875 C2.716875 3.795625 1.87125 3.40375 1 3 C0.67 2.01 0.34 1.02 0 0 Z " fill="#DADBDC" transform="translate(519,163)"/>
<path d="M0 0 C1.32384033 2.64768067 0.52249509 3.99592338 -0.3203125 6.71484375 C-1.72215275 11.42792735 -2.82423546 16.22639598 -4 21 C-4.33 21 -4.66 21 -5 21 C-4.70590493 13.26529967 -3.27323474 7.01842425 0 0 Z " fill="#E8E7E8" transform="translate(99,391)"/>
<path d="M0 0 C0 6.6 0 13.2 0 20 C-0.33 20 -0.66 20 -1 20 C-1 14.39 -1 8.78 -1 3 C-2.65 3.33 -4.3 3.66 -6 4 C-2.25 0 -2.25 0 0 0 Z " fill="#DBDADB" transform="translate(566,364)"/>
<path d="M0 0 C1.50539661 0.94983358 3.00420347 1.91011891 4.5 2.875 C5.75296875 3.67550781 5.75296875 3.67550781 7.03125 4.4921875 C7.6809375 4.98976562 8.330625 5.48734375 9 6 C9 6.66 9 7.32 9 8 C4.62140745 7.49477778 2.18348776 4.82172778 -1 2 C-0.67 1.34 -0.34 0.68 0 0 Z " fill="#D8D9D9" transform="translate(487,181)"/>
<path d="M0 0 C2.8685771 2.8685771 2.93113135 5.00561826 3 9 C0.5625 11.4375 0.5625 11.4375 -2 13 C-2.33 12.01 -2.66 11.02 -3 10 C-2.01 9.34 -1.02 8.68 0 8 C0.36297936 6.02252878 0.36297936 6.02252878 0.1875 3.875 C0.125625 2.59625 0.06375 1.3175 0 0 Z " fill="#D8D9D9" transform="translate(565,276)"/>
<path d="M0 0 C3.33333333 3.33333333 6.66666667 6.66666667 10 10 C6.10913233 9.42357516 3.79382697 7.71831813 1 5 C0.1875 2.25 0.1875 2.25 0 0 Z " fill="#E4E3E3" transform="translate(100,428)"/>
<path d="M0 0 C1.77131561 0.30975468 3.54203778 0.62290425 5.3125 0.9375 C6.79169922 1.19853516 6.79169922 1.19853516 8.30078125 1.46484375 C11 2 11 2 14 3 C13.67 3.66 13.34 4.32 13 5 C8.39146203 4.27991594 4.32762591 2.68704061 0 1 C0 0.67 0 0.34 0 0 Z " fill="#E1E1E2" transform="translate(283,329)"/>
<path d="M0 0 C1.32 0.33 2.64 0.66 4 1 C3.01 1.33 2.02 1.66 1 2 C0.19436362 4.10584438 0.19436362 4.10584438 -0.1875 6.5625 C-0.42533203 7.80193359 -0.42533203 7.80193359 -0.66796875 9.06640625 C-0.77753906 9.70449219 -0.88710937 10.34257812 -1 11 C-1.66 10.34 -2.32 9.68 -3 9 C-2.01 6.03 -1.02 3.06 0 0 Z " fill="#E0E1E2" transform="translate(178,263)"/>
<path d="M0 0 C2.9719385 1.12451727 5.33440687 2.22293791 8 4 C8 4.99 8 5.98 8 7 C4.2047869 5.50902342 2.38957269 3.24299151 0 0 Z " fill="#E0E0E0" transform="translate(262,308)"/>
<path d="M0 0 C0.66 0.33 1.32 0.66 2 1 C-0.8125 3.0625 -0.8125 3.0625 -4 5 C-4.99 4.67 -5.98 4.34 -7 4 C-4.61426621 2.10786631 -2.92824652 0.97608217 0 0 Z " fill="#E3E3E3" transform="translate(423,387)"/>
<path d="M0 0 C3.11743233 1.50098594 6.15501823 3.02431822 9 5 C9 5.99 9 6.98 9 8 C4.7257442 6.4169423 2.73468206 3.49431596 0 0 Z " fill="#DFDFDF" transform="translate(213,325)"/>
<path d="M0 0 C4 0 4 0 5.625 1.4375 C6.07875 1.953125 6.5325 2.46875 7 3 C7.66 3.33 8.32 3.66 9 4 C9 4.66 9 5.32 9 6 C5.06326356 4.68775452 2.77280706 3.08089673 0 0 Z " fill="#E0E0E0" transform="translate(270,315)"/>
<path d="M0 0 C2.86697492 1.28519565 4.97607712 2.57129254 7 5 C7 5.66 7 6.32 7 7 C4.13302508 5.71480435 2.02392288 4.42870746 0 2 C0 1.34 0 0.68 0 0 Z " fill="#DBDCDD" transform="translate(648,199)"/>
<path d="M0 0 C2.64752004 2.57784846 4.94432065 4.91648098 7 8 C4.13792848 6.71700242 1.9754912 5.469364 0 3 C0 2.01 0 1.02 0 0 Z " fill="#E3E2E3" transform="translate(69,469)"/>
<path d="M0 0 C4.24822374 0.47202486 6.19989709 2.96655518 9 6 C5.06326356 4.68775452 2.77280706 3.08089673 0 0 Z " fill="#DBDCDD" transform="translate(462,209)"/>
</svg>
